<svg xmlns="http://www.w3.org/2000/svg" width="974" height="537" viewBox="0 0 974 537">
    <g fill="none" fill-rule="evenodd">
        <g transform="translate(-14 -24)">
            <path fill="#F89820" d="M942.49 410.267L928 409.143 934.695 398z" opacity=".75"/>
            <path fill="#F8B777" d="M834.18 344.665c-3.226.745-5.24 3.955-4.499 7.17.743 3.215 3.96 5.218 7.188 4.472 3.227-.745 5.241-3.955 4.5-7.17-.743-3.215-3.96-5.217-7.188-4.472m3.101 13.434c-4.22.974-8.428-1.644-9.399-5.849-.97-4.204 1.664-8.402 5.884-9.376 4.22-.974 8.428 1.644 9.399 5.848.97 4.204-1.664 8.402-5.884 9.377"/>
            <path fill="#ED706B" d="M840.565 350.007a5.008 5.008 0 0 0-.1-.63 5.023 5.023 0 0 0-.428-1.16 7.834 7.834 0 0 0-4.613 7.351c.406.007.82-.03 1.234-.125a5.15 5.15 0 0 0 .613-.187 5.986 5.986 0 0 1 3.294-5.249zm-4.124 9.189a7.839 7.839 0 0 0 8.578 3.75c4.22-.974 6.854-5.172 5.883-9.376-.796-3.45-3.772-5.827-7.145-6.033.118.327.224.661.304 1.01.069.296.12.593.157.888 2.335.374 4.324 2.112 4.886 4.55.743 3.215-1.272 6.425-4.499 7.17a5.996 5.996 0 0 1-6.248-2.378c-.283.096-.574.18-.872.249a8.89 8.89 0 0 1-1.044.17z"/>
            <path fill="#3B4E87" d="M637.096 67.811s-2.433-.381-3.055-2.471c-.622-2.09 1.128-4.316 4.476-3.731 3.347.585 6.059 2.872 6.059 2.872 0 .004-.116 3.548-1.92 6.425-1.805 2.88-4.63 2.69-5.768.83-1.137-1.86.208-3.925.208-3.925z" opacity=".92"/>
            <circle cx="875.811" cy="241.811" r="6" fill="#3B4E87" opacity=".84" transform="rotate(68 875.81 241.81)"/>
            <circle cx="945.716" cy="291.716" r="9" fill="#E23F3A" opacity=".84" transform="rotate(68 945.716 291.716)"/>
            <circle cx="928.811" cy="176.811" r="6" fill="#E23F3A" opacity=".84" transform="rotate(68 928.81 176.81)"/>
            <path fill="#FABD1F" d="M870.036 127.302l-7.02 10.163-11.878.72-7.789-9.262 2.164-12.272 10.487-6.04 10.914 4.74z" opacity=".97"/>
            <path fill="#ED706B" d="M704.039 101.495c-1.57 3.08-.306 6.867 2.822 8.46 3.127 1.594 6.934.39 8.503-2.69 1.57-3.079.306-6.866-2.822-8.46-3.128-1.594-6.935-.39-8.503 2.69m13.068 6.658c-2.052 4.027-7.03 5.602-11.12 3.518-4.09-2.084-5.743-7.037-3.69-11.064 2.05-4.026 7.03-5.601 11.12-3.517 4.089 2.084 5.741 7.037 3.69 11.063"/>
            <path fill="#F8B777" d="M712.723 99.989a5.43 5.43 0 0 0-.583-.35 5.442 5.442 0 0 0-1.237-.446c-.883 3.173.264 6.612 2.894 8.674.28-.32.53-.673.73-1.069.103-.201.187-.408.262-.616-1.792-1.532-2.59-3.928-2.066-6.193zm4.724 9.533c3.516.664 7.169-.985 8.852-4.289 2.051-4.026.4-8.98-3.69-11.064-3.356-1.71-7.306-.953-9.751 1.596.347.128.691.271 1.03.443.288.147.566.308.832.48a6.356 6.356 0 0 1 7.015-.803c3.127 1.593 4.39 5.382 2.822 8.46-1.19 2.336-3.667 3.589-6.16 3.365-.112.291-.24.58-.384.864a9.1 9.1 0 0 1-.566.948z"/>
            <circle cx="25.492" cy="292.492" r="6" fill="#3B4E87" opacity=".84" transform="rotate(17 25.492 292.492)"/>
            <circle cx="129.492" cy="325.492" r="6" fill="#E36025" opacity=".84" transform="rotate(17 129.492 325.492)"/>
            <g transform="translate(12 445)">
                <circle cx="851.465" cy="29.465" r="6" fill="#E36025" opacity=".84" transform="rotate(-139 851.465 29.465)"/>
                <circle cx="748.992" cy="22.992" r="8.5" fill="#E36025" opacity=".84" transform="rotate(-139 748.992 22.992)"/>
                <path fill="#ED706B" d="M22.621 96.099a9.272 9.272 0 0 1-9.272-9.272 9.272 9.272 0 0 1 9.272-9.272 9.272 9.272 0 0 1 9.272 9.272 9.272 9.272 0 0 1-9.272 9.272m0-21.397c-6.696 0-12.124 5.429-12.124 12.125 0 6.697 5.428 12.125 12.124 12.125 6.697 0 12.125-5.428 12.125-12.125 0-6.696-5.428-12.125-12.125-12.125"/>
                <path fill="#F8B777" d="M15.231 89.048a7.877 7.877 0 0 1-.293-.958 7.9 7.9 0 0 1-.193-1.927 12.255 12.255 0 0 1 11.513 7.194c-.566.288-1.17.521-1.818.67-.33.077-.66.124-.988.158a9.364 9.364 0 0 0-8.22-5.137zM27.32 99.165c-.328 5.268-4.057 9.919-9.463 11.167-6.589 1.521-13.164-2.587-14.685-9.176-1.248-5.406 1.297-10.796 5.888-13.4.059.542.14 1.085.265 1.63.107.465.239.919.39 1.361-3.02 2.128-4.618 5.94-3.736 9.76a9.363 9.363 0 0 0 11.23 7.018c3.822-.883 6.546-3.989 7.135-7.636.464-.058.928-.14 1.394-.247a13.827 13.827 0 0 0 1.582-.477z"/>
                <path fill="#ED706B" d="M946.215 112.492c-5.844 0-10.582-4.737-10.582-10.582 0-5.844 4.738-10.581 10.582-10.581s10.582 4.737 10.582 10.581c0 5.845-4.738 10.582-10.582 10.582m0-24.42c-7.642 0-13.838 6.196-13.838 13.838 0 7.643 6.196 13.838 13.838 13.838 7.642 0 13.837-6.195 13.837-13.838 0-7.642-6.195-13.837-13.837-13.837"/>
                <path fill="#F8B777" d="M954.593 105.635a8.99 8.99 0 0 1-.41 1.067 9.017 9.017 0 0 1-1.18 1.87 13.986 13.986 0 0 1-5.298-14.56 9.052 9.052 0 0 1 2.105.674c.35.163.68.352 1 .553a10.687 10.687 0 0 0 3.783 10.396zm-3.761-17.592c3.995-4.507 10.617-6.07 16.356-3.393 6.994 3.261 10.02 11.575 6.759 18.57-2.676 5.738-8.753 8.797-14.71 7.914a15.78 15.78 0 0 0 .907-1.653c.23-.493.43-.994.605-1.497 4.211.208 8.326-2.097 10.218-6.154 2.494-5.349.18-11.706-5.169-14.2-4.057-1.892-8.69-1.013-11.782 1.853a15.832 15.832 0 0 0-1.427-.757 15.78 15.78 0 0 0-1.757-.683z"/>
                <circle cx="112.614" cy="10.614" r="8.5" fill="#3B4E87" opacity=".84" transform="rotate(17 112.614 10.614)"/>
                <circle cx="222.492" cy="60.492" r="6" fill="#E36025" opacity=".84" transform="rotate(17 222.492 60.492)"/>
            </g>
            <circle cx="50.614" cy="383.482" r="8.5" fill="#E36025" opacity=".84" transform="rotate(17 50.614 383.482)"/>
            <path fill="#D90808" d="M110.563 221.863l16.164 11.99 3.125-17.727z" opacity=".77"/>
            <path fill="#517BB8" d="M181.853 123.948l14.749-5.242-1.706 13.896z" opacity=".75"/>
            <path fill="#F50054" fill-opacity=".72" d="M27.586 49.251s-.625-4.353-4.288-5.429c-3.664-1.075-7.61 2.102-6.644 8.09.966 5.986 4.938 10.803 4.938 10.803.006 0 6.24-.273 11.333-3.56 5.095-3.288 4.816-8.346 1.566-10.35-3.25-2.002-6.905.446-6.905.446z" opacity=".97"/>
            <g>
                <path fill="#ED706B" d="M254.116 16.15c-7.88-3.674-17.247-.265-20.921 7.615-3.675 7.881-.266 17.248 7.615 20.922 7.88 3.675 17.247.266 20.921-7.615 3.675-7.88.266-17.247-7.615-20.921m-15.354 32.927c-10.305-4.806-14.763-17.055-9.958-27.36 4.806-10.305 17.055-14.763 27.36-9.958 10.305 4.806 14.763 17.055 9.958 27.36-4.806 10.305-17.055 14.763-27.36 9.958"/>
                <path fill="#F8B777" d="M258.565 36.861c.3-.474.581-.965.824-1.487a13.415 13.415 0 0 0 1.003-3.133c-8.127-1.985-16.713 1.14-21.662 7.885.838.678 1.76 1.278 2.782 1.755.52.243 1.052.438 1.586.61a15.9 15.9 0 0 1 15.467-5.63zm-23.647 12.537c-1.316 8.864 3.236 17.905 11.774 21.886 10.406 4.853 22.777.351 27.63-10.055 3.98-8.538 1.656-18.39-5.05-24.335-.289.88-.614 1.754-1.016 2.615-.342.734-.72 1.441-1.127 2.122 4.265 4.6 5.573 11.495 2.759 17.53-3.711 7.958-13.171 11.4-21.128 7.69-6.037-2.815-9.465-8.935-9.156-15.2-.75-.261-1.492-.56-2.227-.903a23.478 23.478 0 0 1-2.459-1.35z"/>
            </g>
            <g>
                <path fill="#ED706B" d="M73.48 112.132c-3.51.746-5.745 4.227-4.99 7.775.754 3.548 4.21 5.819 7.72 5.073 3.511-.746 5.745-4.227 4.991-7.775-.754-3.548-4.21-5.82-7.721-5.073m3.15 14.824c-4.59.976-9.11-1.994-10.096-6.634-.986-4.64 1.935-9.191 6.526-10.167 4.59-.975 9.11 1.995 10.097 6.634.986 4.64-1.936 9.192-6.526 10.167"/>
                <path fill="#F8B777" d="M80.35 118.117a5.583 5.583 0 0 0-.098-.696 5.598 5.598 0 0 0-.447-1.283c-3.139 1.358-5.167 4.517-5.116 7.972.44.016.89-.014 1.34-.11.23-.049.451-.116.668-.192.068-2.435 1.482-4.637 3.653-5.691zm-4.616 10c1.759 3.253 5.474 5.112 9.24 4.311 4.59-.976 7.513-5.528 6.527-10.167-.81-3.807-3.999-6.484-7.652-6.786a9.8 9.8 0 0 1 .314 1.115c.07.327.12.654.156.98a6.568 6.568 0 0 1 5.226 5.107c.754 3.548-1.48 7.028-4.99 7.774-2.663.566-5.292-.606-6.737-2.752-.308.1-.624.185-.949.254-.38.08-.757.13-1.135.163z"/>
            </g>
        </g>
        <path fill="#F89820" d="M339.237 58.126l3.015 9.6 6.474-6.252z" opacity=".75"/>
        <path fill="#F50054" fill-opacity=".72" d="M915.438 38.833s-2.23-3.516-5.834-3.036c-3.604.48-5.806 4.736-2.647 9.53 3.16 4.795 8.481 7.425 8.481 7.425.005-.002 5.323-2.632 8.481-7.424 3.16-4.795.957-9.052-2.646-9.531-3.604-.48-5.835 3.036-5.835 3.036z" opacity=".97"/>
    </g>
</svg>
